<svg width="88" height="88" viewBox="0 0 88 88" fill="none" xmlns="http://www.w3.org/2000/svg">
<g filter="url(#filter0_d_206_71)">
<path d="M43.8202 79.1504C49.2238 79.1504 54.302 78.125 59.0546 76.0742C63.8072 74.0234 67.9983 71.1751 71.6279 67.5293C75.2574 63.8834 78.1057 59.6842 80.1728 54.9316C82.2398 50.179 83.2734 45.1172 83.2734 39.7461C83.2734 34.375 82.2398 29.3132 80.1728 24.5605C78.1057 19.8079 75.2492 15.6087 71.6034 11.9629C67.9576 8.31703 63.7584 5.46873 59.0058 3.418C54.2532 1.3672 49.175 0.341797 43.7714 0.341797C38.4003 0.341797 33.3385 1.3672 28.5859 3.418C23.8333 5.46873 19.6503 8.31703 16.037 11.9629C12.4237 15.6087 9.58353 19.8079 7.51647 24.5605C5.44942 29.3132 4.41589 34.375 4.41589 39.7461C4.41589 45.1172 5.44942 50.179 7.51647 54.9316C9.58353 59.6842 12.4318 63.8834 16.0614 67.5293C19.691 71.1751 23.8821 74.0234 28.6347 76.0742C33.3873 78.125 38.4491 79.1504 43.8202 79.1504ZM43.8202 71.7285C39.3931 71.7285 35.2509 70.9066 31.3935 69.2627C27.536 67.6188 24.1506 65.332 21.2372 62.4023C18.3238 59.4726 16.0451 56.071 14.4013 52.1973C12.7574 48.3236 11.9355 44.1732 11.9355 39.7461C11.9355 35.319 12.7493 31.1686 14.3769 27.2949C16.0045 23.4212 18.275 20.0195 21.1884 17.0898C24.1018 14.1601 27.4872 11.8734 31.3446 10.2295C35.202 8.58563 39.3443 7.7637 43.7714 7.7637C48.231 7.7637 52.3896 8.58563 56.247 10.2295C60.1044 11.8734 63.4979 14.1601 66.4277 17.0898C69.3573 20.0195 71.6522 23.4212 73.3124 27.2949C74.9726 31.1686 75.8027 35.319 75.8027 39.7461C75.8027 44.1732 74.9807 48.3236 73.3368 52.1973C71.6929 56.071 69.4143 59.4726 66.5009 62.4023C63.5875 65.332 60.1939 67.6188 56.3202 69.2627C52.4465 70.9066 48.2798 71.7285 43.8202 71.7285Z" fill="#3e01b4"/>
<path d="M39.7187 51.4648C42.6809 51.4648 45.3745 50.7406 47.7997 49.292C50.2248 47.8434 52.1617 45.8984 53.6103 43.457C55.0588 41.0156 55.7831 38.3301 55.7831 35.4004C55.7831 32.4382 55.0588 29.7445 53.6103 27.3193C52.1617 24.8942 50.2248 22.9574 47.7997 21.5088C45.3745 20.0602 42.6809 19.3359 39.7187 19.3359C36.7889 19.3359 34.1034 20.0602 31.662 21.5088C29.2206 22.9574 27.2756 24.9024 25.8271 27.3438C24.3785 29.7852 23.6542 32.4708 23.6542 35.4004C23.6542 38.3301 24.3785 41.0075 25.8271 43.4326C27.2756 45.8578 29.2206 47.8028 31.662 49.2676C34.1034 50.7324 36.7889 51.4648 39.7187 51.4648ZM39.7187 45.5566C37.8632 45.5566 36.1623 45.0928 34.6161 44.165C33.0699 43.2373 31.841 42.0085 30.9296 40.4785C30.0181 38.9486 29.5624 37.2559 29.5624 35.4004C29.5624 33.545 30.0181 31.8523 30.9296 30.3223C31.841 28.7923 33.0699 27.5635 34.6161 26.6357C36.1623 25.708 37.8632 25.2441 39.7187 25.2441C41.5741 25.2441 43.2668 25.6999 44.7968 26.6113C46.3267 27.5228 47.5555 28.7517 48.4833 30.2979C49.411 31.8441 49.8749 33.545 49.8749 35.4004C49.8749 37.2559 49.411 38.9486 48.4833 40.4785C47.5555 42.0085 46.3267 43.2373 44.7968 44.165C43.2668 45.0928 41.5741 45.5566 39.7187 45.5566ZM60.3241 59.7656C61.3332 59.7656 62.1633 59.4238 62.8144 58.7402C63.4654 58.0566 63.7909 57.1777 63.7909 56.1035C63.7909 55.6153 63.6851 55.1433 63.4736 54.6875C63.262 54.2318 62.9934 53.8412 62.6679 53.5156L50.705 41.5039L45.2362 46.4844L57.2968 58.4961C58.078 59.3425 59.0871 59.7656 60.3241 59.7656Z" fill="#3e01b4"/>
</g>
<defs>
<filter id="filter0_d_206_71" x="0.415894" y="0.341797" width="86.8575" height="86.8086" filterUnits="userSpaceOnUse" color-interpolation-filters="sRGB">
<feFlood flood-opacity="0" result="BackgroundImageFix"/>
<feColorMatrix in="SourceAlpha" type="matrix" values="0 0 0 0 0 0 0 0 0 0 0 0 0 0 0 0 0 0 127 0" result="hardAlpha"/>
<feOffset dy="4"/>
<feGaussianBlur stdDeviation="2"/>
<feComposite in2="hardAlpha" operator="out"/>
<feColorMatrix type="matrix" values="0 0 0 0 0 0 0 0 0 0 0 0 0 0 0 0 0 0 0.25 0"/>
<feBlend mode="normal" in2="BackgroundImageFix" result="effect1_dropShadow_206_71"/>
<feBlend mode="normal" in="SourceGraphic" in2="effect1_dropShadow_206_71" result="shape"/>
</filter>
</defs>
</svg>
