<svg viewBox="0 0 82 82" fill="none" xmlns="http://www.w3.org/2000/svg">
<path d="M48.6804 81.4707C50.1778 81.4707 51.4718 80.8685 52.5622 79.6641C53.6528 78.4597 54.5886 76.8646 55.3698 74.879L80.1745 10.084C80.5652 9.07491 80.8663 8.13904 81.0779 7.27644C81.2895 6.41378 81.3952 5.60811 81.3952 4.85944C81.3952 3.52478 80.9965 2.45868 80.1989 1.66115C79.4015 0.863615 78.3354 0.464844 77.0007 0.464844C76.2521 0.464844 75.4464 0.570649 74.5837 0.782249C73.7211 0.993849 72.8015 1.29495 71.8249 1.68555L6.59052 26.6855C4.8653 27.3366 3.40047 28.1992 2.19604 29.2734C0.991618 30.3477 0.389404 31.6498 0.389404 33.1797C0.389404 35.1329 1.04858 36.5245 2.36693 37.3545C3.68529 38.1846 5.32102 38.8926 7.27412 39.4785L34.4226 47.4863L42.3327 74.1954C42.9187 76.2461 43.6348 77.9714 44.4812 79.3711C45.3276 80.7709 46.7273 81.4707 48.6804 81.4707ZM36.3757 40.8457L10.6921 32.8867C10.5294 32.8217 10.4155 32.7566 10.3503 32.6914C10.2853 32.6264 10.2527 32.5613 10.2527 32.4961C10.2527 32.2683 10.3992 32.1055 10.6921 32.0078L59.2761 13.6484C61.0014 12.9974 62.7022 12.265 64.3786 11.4512C66.0551 10.6374 67.7397 9.83991 69.4323 9.05865C67.9675 10.263 66.4376 11.5163 64.8425 12.8184C63.2475 14.1205 61.8477 15.3737 60.6433 16.5781L36.3757 40.8457ZM49.4128 71.7051C49.3152 71.7051 49.2338 71.6563 49.1687 71.5586C49.1036 71.461 49.0385 71.3308 48.9734 71.168L41.0144 45.4844L65.282 21.2656C66.4864 20.0287 67.7559 18.6046 69.0905 16.9932C70.4252 15.3819 71.6785 13.8275 72.8503 12.3301C72.0691 14.0228 71.2634 15.7155 70.4333 17.4082C69.6033 19.101 68.8627 20.8425 68.2116 22.6328L49.8523 71.168C49.7221 71.5261 49.5756 71.7051 49.4128 71.7051Z" fill="black"/>
</svg>
